<?xml version="1.0" standalone="no"?>
<!DOCTYPE svg PUBLIC "-//W3C//DTD SVG 20010904//EN"
 "http://www.w3.org/TR/2001/REC-SVG-20010904/DTD/svg10.dtd">
<svg version="1.0" xmlns="http://www.w3.org/2000/svg"
 width="280.000000pt" height="250.000000pt" viewBox="0 0 280.000000 250.000000"
 preserveAspectRatio="xMidYMid meet">

<g transform="translate(0.000000,250.000000) scale(0.100000,-0.100000)"
fill="#000000" stroke="none">
<path d="M1357 2458 c-17 -13 -16 -15 13 -43 l30 -29 32 32 c18 17 29 34 26
38 -14 13 -84 15 -101 2z"/>
<path d="M1230 2345 l-94 -95 29 -30 c16 -17 32 -29 36 -28 5 2 49 43 99 92
l91 90 -33 33 -33 33 -95 -95z"/>
<path d="M1442 2407 l-33 -34 91 -89 c50 -49 94 -90 99 -92 4 -1 20 11 36 28
l29 31 -95 95 -95 94 -32 -33z"/>
<path d="M1302 2267 l-92 -92 95 -95 95 -95 95 95 95 95 -92 92 c-51 51 -95
93 -98 93 -3 0 -47 -42 -98 -93z"/>
<path d="M1030 2145 l-94 -95 29 -30 c16 -16 33 -30 39 -30 6 0 50 42 98 93
l87 92 -32 33 -32 32 -95 -95z"/>
<path d="M1643 2208 l-32 -33 87 -93 c48 -50 92 -92 98 -92 6 0 23 14 39 30
l29 31 -95 95 -95 94 -31 -32z"/>
<path d="M1102 2067 l-92 -92 98 -98 98 -98 92 98 92 98 -92 92 c-51 51 -95
93 -98 93 -3 0 -47 -42 -98 -93z"/>
<path d="M1502 2067 l-92 -92 92 -98 92 -98 98 98 98 98 -92 92 c-51 51 -95
93 -98 93 -3 0 -47 -42 -98 -93z"/>
<path d="M831 1946 l-94 -95 27 -35 c15 -20 30 -36 34 -36 4 0 50 43 102 95
l95 95 -35 35 -35 35 -94 -94z"/>
<path d="M1840 2005 l-34 -35 94 -95 c52 -52 98 -95 102 -95 4 0 19 16 34 36
l27 35 -94 95 -95 94 -34 -35z"/>
<path d="M900 1865 l-95 -95 98 -98 97 -97 97 97 98 98 -95 95 c-52 52 -97 95
-100 95 -3 0 -48 -43 -100 -95z"/>
<path d="M1200 1765 l-195 -195 151 -151 151 -151 56 36 c31 19 70 54 87 78
l31 42 -22 17 c-19 14 -21 22 -15 55 19 97 71 174 120 174 12 0 38 8 58 18
l36 19 -126 126 c-70 70 -130 127 -132 127 -3 0 -93 -88 -200 -195z m140 -169
c0 -3 -4 -8 -10 -11 -5 -3 -10 -1 -10 4 0 6 5 11 10 11 6 0 10 -2 10 -4z m120
-6 c0 -5 -2 -10 -4 -10 -3 0 -8 5 -11 10 -3 6 -1 10 4 10 6 0 11 -4 11 -10z
m-265 -118 c-3 -3 -11 0 -18 7 -9 10 -8 11 6 5 10 -3 15 -9 12 -12z"/>
<path d="M1700 1865 l-94 -95 28 -29 c19 -20 42 -31 71 -36 26 -3 59 -18 81
-36 20 -16 46 -29 58 -29 13 0 47 25 86 65 l65 65 -95 95 c-52 52 -97 95 -100
95 -3 0 -48 -43 -100 -95z"/>
<path d="M632 1747 c-50 -51 -92 -97 -92 -103 0 -6 14 -23 30 -39 l31 -29 97
97 97 97 -35 35 -35 35 -93 -93z"/>
<path d="M2040 1805 l-34 -35 97 -97 96 -97 31 29 c16 16 30 34 30 40 0 6 -42
52 -93 103 l-93 92 -34 -35z"/>
<path d="M700 1665 l-94 -95 39 -40 c25 -26 47 -39 60 -38 15 2 21 -3 23 -23
2 -14 19 -41 38 -60 l34 -33 98 97 97 97 -95 95 c-52 52 -97 95 -100 95 -3 0
-48 -43 -100 -95z"/>
<path d="M1932 1697 c-34 -34 -62 -65 -62 -69 0 -4 10 -8 21 -10 40 -6 46 -32
20 -84 l-22 -47 55 -56 56 -55 35 34 c24 23 35 43 35 62 0 29 9 35 26 18 7 -7
25 5 54 35 l44 45 -94 95 c-52 52 -97 95 -100 95 -3 0 -34 -28 -68 -63z"/>
<path d="M467 1581 c-33 -35 -57 -69 -58 -83 -2 -40 2 -63 15 -75 9 -10 28 4
91 67 l80 80 -36 35 -35 36 -57 -60z"/>
<path d="M2240 1605 l-34 -35 79 -80 c68 -68 81 -78 93 -66 16 16 18 75 4 102
-6 11 -32 40 -59 67 l-49 47 -34 -35z"/>
<path d="M515 1480 c-43 -44 -77 -81 -74 -83 33 -30 112 -36 149 -10 39 25 90
76 90 88 0 10 -71 85 -81 85 -2 0 -40 -36 -84 -80z"/>
<path d="M900 1465 l-95 -95 98 -98 97 -97 97 97 98 98 -95 95 c-52 52 -97 95
-100 95 -3 0 -48 -43 -100 -95z"/>
<path d="M2152 1517 l-42 -43 48 -47 c61 -60 105 -74 161 -51 23 9 41 19 41
23 0 8 -153 161 -161 161 -2 0 -24 -19 -47 -43z"/>
<path d="M1863 1453 c-17 -17 -33 -23 -67 -23 -56 0 -71 -20 -81 -105 l-6 -60
46 -45 45 -45 98 98 97 97 -55 53 -55 54 -22 -24z"/>
<path d="M730 1370 l0 -65 32 33 33 32 -33 32 -32 33 0 -65z"/>
<path d="M2035 1400 l-29 -30 32 -33 32 -32 0 63 c0 34 -1 62 -3 62 -2 0 -16
-14 -32 -30z"/>
<path d="M762 1327 l-32 -33 0 -125 0 -125 35 -34 35 -34 98 97 97 97 -95 95
c-52 52 -97 95 -100 95 -3 0 -20 -15 -38 -33z"/>
<path d="M1100 1265 l-94 -95 44 -47 45 -48 -48 45 -47 45 -97 -98 -97 -97 33
-34 c28 -29 39 -34 65 -29 38 6 51 -7 59 -61 4 -22 13 -46 21 -55 14 -13 18
-13 36 4 14 13 20 31 20 64 0 78 27 180 61 233 32 50 117 126 172 154 l29 16
-48 49 c-26 27 -51 49 -54 49 -3 0 -48 -43 -100 -95z"/>
<path d="M1900 1265 l-95 -95 97 -97 98 -97 35 34 35 34 0 126 0 126 -33 32
c-18 18 -35 32 -38 32 -2 0 -47 -43 -99 -95z"/>
<path d="M1710 1190 c-1 -43 -7 -77 -19 -99 -17 -32 -17 -37 2 -131 18 -92 22
-101 63 -141 l44 -44 98 98 97 97 -97 97 -98 98 -62 -60 -63 -60 60 63 60 62
-43 42 -42 43 0 -65z"/>
<path d="M1271 1137 c1 -17 4 -42 7 -55 7 -23 7 -23 40 11 36 37 33 46 -21 66
-26 10 -27 9 -26 -22z"/>
<path d="M1483 1155 c-18 -8 -33 -18 -33 -23 0 -10 58 -67 64 -61 7 8 14 99 7
99 -3 -1 -21 -7 -38 -15z"/>
<path d="M1312 1077 c-48 -49 -52 -74 -17 -115 l25 -30 -23 -15 -22 -15 62
-63 63 -63 40 39 c35 34 41 45 39 76 -2 25 4 44 19 64 12 15 22 31 22 36 0 4
3 14 6 23 3 9 -10 32 -36 60 -39 42 -47 46 -89 46 -42 0 -51 -5 -89 -43z m44
-48 c8 -14 -21 -43 -35 -35 -19 12 -13 46 8 46 11 0 23 -5 27 -11z m129 -14
c0 -30 -39 -27 -43 3 -3 20 0 23 20 20 15 -2 23 -10 23 -23z"/>
<path d="M728 969 l4 -62 31 31 31 32 -29 30 c-16 16 -31 30 -34 30 -3 0 -4
-28 -3 -61z"/>
<path d="M2035 1000 l-29 -30 32 -33 32 -32 0 63 c0 34 -1 62 -3 62 -2 0 -16
-14 -32 -30z"/>
<path d="M760 925 c-32 -33 -33 -37 -31 -101 2 -74 17 -112 57 -143 34 -26 95
-28 117 -3 15 17 15 21 -8 67 -17 33 -25 65 -25 100 0 45 -4 55 -33 83 -18 18
-35 32 -38 32 -3 0 -20 -16 -39 -35z"/>
<path d="M1900 865 l-94 -95 54 -55 c62 -63 99 -71 151 -34 44 31 59 69 59
147 0 64 -2 70 -33 100 -18 18 -35 32 -38 32 -2 0 -47 -43 -99 -95z"/>
<path d="M1229 859 c-27 -38 -49 -110 -49 -161 l0 -38 53 0 c51 0 55 2 107 55
l54 55 -59 60 c-33 33 -65 60 -72 60 -6 0 -21 -14 -34 -31z"/>
<path d="M1440 806 l-34 -36 31 -32 32 -31 6 35 c4 19 5 49 3 67 l-3 32 -35
-35z"/>
<path d="M1725 795 c9 -65 19 -75 47 -47 l23 22 -39 38 -38 37 7 -50z"/>
<path d="M1020 784 c-11 -12 -10 -18 3 -32 16 -15 17 -14 17 16 0 36 -2 38
-20 16z"/>
<path d="M1345 710 l-49 -50 92 0 c69 0 92 3 92 13 0 12 -70 87 -81 87 -3 0
-27 -22 -54 -50z"/>
<path d="M1781 746 c-9 -10 -8 -16 4 -26 8 -7 15 -23 15 -36 0 -22 4 -24 52
-24 l52 0 -49 50 c-54 55 -57 56 -74 36z"/>
<path d="M910 675 c-11 -13 -6 -15 31 -15 43 1 44 1 19 15 -32 18 -35 18 -50
0z"/>
<path d="M2562 478 c-68 -11 -78 -21 -68 -64 6 -24 10 -26 45 -20 l38 6 7 -62
c3 -33 6 -101 6 -149 0 -88 0 -89 24 -89 14 0 36 4 50 10 l26 10 0 140 0 140
28 6 c51 11 53 13 50 46 l-3 33 -70 1 c-38 1 -98 -3 -133 -8z"/>
<path d="M930 472 c-70 -8 -67 -3 -63 -99 l4 -88 -33 60 c-66 117 -61 114
-130 94 l-38 -10 0 -88 c0 -48 3 -129 7 -180 l6 -92 41 3 41 3 5 105 5 105 45
-92 c44 -91 46 -93 80 -93 19 0 40 4 46 8 15 9 30 318 17 347 -5 14 -16 19
-33 17z"/>
<path d="M1093 465 c-42 -18 -65 -56 -65 -105 1 -52 11 -68 77 -125 59 -50 68
-77 33 -99 -25 -15 -50 3 -62 43 -10 33 -31 40 -67 20 -52 -28 43 -129 121
-129 83 0 136 59 127 139 -4 41 -12 52 -66 101 -62 55 -78 91 -46 104 16 6 55
-26 55 -44 0 -14 43 -12 64 3 17 13 17 15 2 46 -29 55 -106 75 -173 46z"/>
<path d="M1990 463 c-75 -11 -98 -23 -105 -55 -7 -29 -2 -141 11 -286 l6 -62
46 0 45 0 -6 66 -5 66 37 15 c51 21 98 59 116 93 15 30 20 86 9 115 -12 31
-95 57 -154 48z m44 -69 c31 -30 16 -102 -24 -124 -19 -10 -20 -7 -20 65 0 79
10 93 44 59z"/>
<path d="M425 446 c-66 -30 -105 -102 -105 -193 1 -108 51 -173 133 -173 98 0
182 137 163 264 -11 70 -48 107 -112 112 -29 3 -61 -1 -79 -10z m75 -75 c13
-25 13 -161 0 -195 -11 -30 -41 -34 -61 -9 -18 21 -19 169 -1 201 16 27 48 29
62 3z"/>
<path d="M2278 447 l-68 -9 0 -57 c0 -31 7 -110 15 -176 8 -66 15 -124 15
-129 0 -12 211 1 223 13 5 5 6 23 2 40 l-7 31 -66 -2 -67 -3 -3 34 c-4 41 8
51 66 51 l42 0 0 41 0 42 -56 -7 -55 -6 3 32 c3 33 3 33 64 36 l62 3 4 39 4
40 -56 -1 c-30 -1 -85 -6 -122 -12z"/>
<path d="M1470 441 c-22 -6 -24 -11 -20 -41 10 -72 5 -259 -7 -272 -27 -26
-37 8 -35 124 1 62 3 122 4 133 3 17 -3 20 -42 20 -42 0 -46 -2 -57 -35 -18
-54 -16 -215 3 -256 40 -84 161 -85 212 -2 40 65 52 211 26 315 -6 24 -32 29
-84 14z"/>
<path d="M114 421 c-101 -62 -137 -233 -65 -310 66 -71 214 -37 237 54 8 32 6
34 -39 42 -34 5 -36 4 -39 -28 -2 -28 -8 -35 -29 -37 -14 -2 -31 4 -38 12 -19
23 -25 125 -9 170 23 68 67 73 68 9 0 -16 6 -23 19 -23 20 0 81 20 81 26 0 19
-32 74 -51 88 -31 22 -97 20 -135 -3z"/>
<path d="M1623 422 c-12 -7 -5 -162 13 -326 l7 -58 51 6 c28 3 75 6 104 6 l53
0 -3 38 -3 37 -57 -3 -57 -2 -7 36 c-4 21 -4 90 -1 156 l5 118 -46 0 c-26 0
-52 -4 -59 -8z"/>
</g>
</svg>
