<?xml version="1.0" standalone="no"?>
<!DOCTYPE svg PUBLIC "-//W3C//DTD SVG 20010904//EN"
 "http://www.w3.org/TR/2001/REC-SVG-20010904/DTD/svg10.dtd">
<svg version="1.0" xmlns="http://www.w3.org/2000/svg"
 width="280.000000pt" height="250.000000pt" viewBox="0 0 280.000000 250.000000"
 preserveAspectRatio="xMidYMid meet">

<g transform="translate(0.000000,250.000000) scale(0.100000,-0.100000)"
fill="#000000" stroke="none">
<path d="M1357 2458 c-17 -13 -16 -15 13 -43 l30 -29 32 32 c18 17 29 34 26
38 -14 13 -84 15 -101 2z"/>
<path d="M1230 2345 l-94 -95 29 -30 c16 -17 32 -29 36 -28 5 2 49 43 99 92
l91 90 -33 33 -33 33 -95 -95z"/>
<path d="M1442 2407 l-33 -34 91 -89 c50 -49 94 -90 99 -92 4 -1 20 11 36 28
l29 31 -95 95 -95 94 -32 -33z"/>
<path d="M1302 2267 l-92 -92 95 -95 95 -95 95 95 95 95 -92 92 c-51 51 -95
93 -98 93 -3 0 -47 -42 -98 -93z"/>
<path d="M1030 2145 l-94 -95 29 -30 c16 -16 33 -30 39 -30 6 0 50 42 98 93
l87 92 -32 33 -32 32 -95 -95z"/>
<path d="M1643 2208 l-32 -33 87 -93 c48 -50 92 -92 98 -92 6 0 23 14 39 30
l29 31 -95 95 -95 94 -31 -32z"/>
<path d="M1102 2067 l-92 -92 98 -98 98 -98 92 98 92 98 -92 92 c-51 51 -95
93 -98 93 -3 0 -47 -42 -98 -93z"/>
<path d="M1502 2067 l-92 -92 92 -98 92 -98 98 98 98 98 -92 92 c-51 51 -95
93 -98 93 -3 0 -47 -42 -98 -93z"/>
<path d="M831 1946 l-94 -95 27 -35 c15 -20 30 -36 34 -36 4 0 50 43 102 95
l95 95 -35 35 -35 35 -94 -94z"/>
<path d="M1840 2005 l-34 -35 94 -95 c52 -52 98 -95 102 -95 4 0 19 16 34 36
l27 35 -94 95 -95 94 -34 -35z"/>
<path d="M900 1865 l-95 -95 98 -98 97 -97 97 97 98 98 -95 95 c-52 52 -97 95
-100 95 -3 0 -48 -43 -100 -95z"/>
<path d="M1200 1765 l-195 -195 151 -151 151 -151 57 37 c31 20 70 55 87 78
30 42 30 42 10 56 -12 7 -21 22 -21 32 0 10 -5 21 -11 25 -6 3 -9 17 -6 30 6
32 1 30 -17 -4 -14 -26 -19 -28 -73 -27 -32 0 -67 -5 -78 -12 -30 -20 -72 -16
-89 9 -49 70 24 223 97 204 41 -10 48 -76 10 -90 -23 -9 -29 2 -14 26 9 15 10
23 1 32 -8 8 -19 3 -40 -21 -50 -56 -50 -133 0 -133 33 0 51 12 64 45 24 57
94 55 80 -1 -9 -34 4 -30 19 7 10 25 19 32 45 34 24 2 32 -1 32 -14 1 -9 10 1
20 21 22 41 55 68 83 68 15 0 73 24 87 37 4 4 -241 253 -250 253 -3 0 -93 -88
-200 -195z"/>
<path d="M1700 1865 l-94 -95 29 -30 c19 -20 39 -30 58 -30 32 0 60 -13 100
-46 45 -37 66 -31 137 41 l65 65 -95 95 c-52 52 -97 95 -100 95 -3 0 -48 -43
-100 -95z"/>
<path d="M632 1747 c-50 -51 -92 -97 -92 -103 0 -6 14 -23 30 -39 l31 -29 97
97 97 97 -35 35 -35 35 -93 -93z"/>
<path d="M2040 1805 l-34 -35 97 -97 96 -97 31 29 c16 16 30 34 30 40 0 6 -42
52 -93 103 l-93 92 -34 -35z"/>
<path d="M700 1665 l-94 -95 39 -40 c25 -26 47 -39 60 -38 15 2 21 -3 23 -23
2 -14 19 -41 38 -60 l34 -33 98 97 97 97 -95 95 c-52 52 -97 95 -100 95 -3 0
-48 -43 -100 -95z"/>
<path d="M1930 1695 l-64 -64 27 -10 c39 -15 43 -37 18 -89 l-22 -45 55 -56
56 -55 35 34 c24 23 35 43 35 62 0 29 9 35 26 18 7 -7 25 5 54 35 l44 45 -94
95 c-52 52 -97 95 -100 95 -3 0 -34 -29 -70 -65z"/>
<path d="M467 1581 c-52 -54 -57 -64 -57 -104 0 -78 17 -76 105 13 l80 80 -36
35 -35 36 -57 -60z"/>
<path d="M2240 1605 l-34 -35 79 -80 c88 -89 105 -91 105 -13 0 41 -5 50 -58
105 l-57 59 -35 -36z"/>
<path d="M1314 1556 c-10 -27 2 -43 14 -19 8 14 9 24 2 28 -6 3 -13 -1 -16 -9z"/>
<path d="M515 1480 c-43 -44 -77 -81 -74 -83 33 -30 112 -36 149 -10 39 25 90
76 90 88 0 10 -71 85 -81 85 -2 0 -40 -36 -84 -80z"/>
<path d="M900 1465 l-95 -95 98 -98 97 -97 97 97 98 98 -95 95 c-52 52 -97 95
-100 95 -3 0 -48 -43 -100 -95z"/>
<path d="M2152 1517 l-42 -43 48 -47 c61 -60 105 -74 161 -51 23 9 41 19 41
23 0 8 -153 161 -161 161 -2 0 -24 -19 -47 -43z"/>
<path d="M1861 1450 c-15 -13 -38 -20 -67 -20 -54 0 -69 -20 -79 -105 l-6 -60
46 -45 45 -45 97 98 98 97 -50 50 c-27 27 -52 50 -55 50 -3 -1 -16 -10 -29
-20z"/>
<path d="M730 1370 l0 -65 32 33 33 32 -33 32 -32 33 0 -65z"/>
<path d="M2035 1400 l-29 -30 32 -33 32 -32 0 63 c0 34 -1 62 -3 62 -2 0 -16
-14 -32 -30z"/>
<path d="M762 1327 l-32 -33 0 -125 0 -125 35 -34 35 -34 98 97 97 97 -95 95
c-52 52 -97 95 -100 95 -3 0 -20 -15 -38 -33z"/>
<path d="M1100 1265 l-94 -95 44 -47 45 -48 -48 45 -47 45 -97 -98 -97 -97 33
-34 c28 -29 39 -34 62 -29 39 7 56 -9 63 -62 9 -56 29 -74 56 -50 15 13 20 31
20 65 0 165 74 293 218 377 l44 26 -48 48 c-27 27 -51 49 -54 49 -3 0 -48 -43
-100 -95z"/>
<path d="M1900 1265 l-95 -95 97 -97 98 -97 35 34 35 34 0 126 0 126 -33 32
c-18 18 -35 32 -38 32 -2 0 -47 -43 -99 -95z"/>
<path d="M1710 1185 c0 -31 -7 -69 -16 -86 -8 -17 -14 -33 -12 -35 2 -2 28 21
58 51 l54 55 -34 35 c-19 19 -38 35 -42 35 -4 0 -8 -25 -8 -55z"/>
<path d="M1271 1137 c1 -17 4 -42 7 -55 7 -23 7 -23 40 11 36 37 33 46 -21 66
-26 10 -27 9 -26 -22z"/>
<path d="M1483 1155 c-18 -8 -33 -18 -33 -23 0 -11 58 -67 64 -61 6 6 11 87 6
93 -3 2 -20 -2 -37 -9z"/>
<path d="M1736 1101 l-59 -59 18 -90 c16 -83 20 -93 61 -133 l44 -44 98 98 97
97 -95 95 c-52 52 -97 95 -100 95 -3 0 -32 -27 -64 -59z"/>
<path d="M1311 1075 c-48 -52 -50 -72 -16 -113 l25 -30 -23 -15 -22 -15 62
-63 63 -63 41 39 c36 36 40 44 36 77 -4 26 0 41 11 50 8 7 21 26 28 43 14 35
7 54 -39 103 -26 27 -38 32 -78 32 -42 0 -50 -4 -88 -45z m44 -60 c0 -30 -39
-27 -43 3 -3 20 0 23 20 20 15 -2 23 -10 23 -23z m133 3 c-2 -15 -10 -23 -23
-23 -13 0 -21 8 -23 23 -3 18 1 22 23 22 22 0 26 -4 23 -22z"/>
<path d="M730 970 l0 -65 32 33 33 32 -33 32 -32 33 0 -65z"/>
<path d="M2035 1000 l-29 -30 32 -33 32 -32 0 63 c0 34 -1 62 -3 62 -2 0 -16
-14 -32 -30z"/>
<path d="M762 927 c-30 -31 -32 -38 -32 -103 0 -78 23 -127 70 -151 36 -18 84
-16 103 5 15 16 14 22 -11 71 -15 33 -27 74 -28 104 -2 39 -9 56 -30 78 -15
16 -31 29 -34 29 -3 0 -20 -15 -38 -33z"/>
<path d="M1900 865 l-94 -95 54 -55 c59 -60 86 -68 141 -40 48 25 69 70 69
147 0 61 -3 71 -31 103 -17 19 -34 35 -38 35 -3 0 -49 -43 -101 -95z"/>
<path d="M1226 853 c-26 -40 -45 -107 -46 -160 l0 -33 53 0 c51 0 55 2 107 55
l54 55 -59 60 c-33 33 -65 60 -72 60 -7 0 -24 -17 -37 -37z"/>
<path d="M1441 806 l-35 -36 24 -25 c13 -14 27 -25 31 -25 11 0 21 60 17 94
l-3 27 -34 -35z"/>
<path d="M1725 788 c9 -58 20 -67 47 -40 l22 22 -29 30 c-39 41 -48 38 -40
-12z"/>
<path d="M1015 780 c-7 -12 2 -30 16 -30 5 0 9 9 9 20 0 21 -15 27 -25 10z"/>
<path d="M1352 717 c-23 -23 -42 -46 -42 -50 0 -4 38 -7 85 -7 47 0 85 4 85 8
0 11 -69 92 -79 92 -4 0 -26 -19 -49 -43z"/>
<path d="M1781 746 c-9 -10 -8 -16 4 -26 8 -7 15 -23 15 -36 0 -22 4 -24 45
-24 25 0 45 3 45 7 0 9 -82 93 -91 93 -4 0 -12 -6 -18 -14z"/>
<path d="M920 680 c-21 -13 -7 -22 27 -18 27 3 27 4 7 15 -12 7 -26 8 -34 3z"/>
<path d="M2635 485 c-5 -2 -35 -6 -65 -10 -74 -8 -84 -15 -75 -54 6 -30 8 -31
46 -25 29 5 39 3 40 -7 1 -8 4 -75 8 -149 l6 -135 40 4 c22 1 43 8 47 15 4 6
8 73 8 149 l0 137 34 0 c38 0 53 22 41 60 -5 17 -15 20 -63 19 -31 0 -61 -2
-67 -4z"/>
<path d="M1118 473 c-15 -2 -41 -17 -58 -33 -24 -22 -30 -36 -30 -70 0 -54 18
-86 80 -139 41 -35 51 -48 48 -70 -6 -56 -88 -27 -88 31 0 18 -24 24 -54 12
-24 -9 -19 -49 10 -83 97 -115 289 -4 220 127 -8 15 -38 47 -66 71 -41 35 -51
48 -48 69 4 39 34 40 56 2 15 -27 21 -30 47 -25 16 3 33 9 37 13 10 10 -18 65
-41 79 -23 14 -77 22 -113 16z"/>
<path d="M880 464 c-12 -4 -14 -21 -12 -97 l3 -92 -29 56 c-62 120 -63 121
-102 114 -76 -15 -74 -9 -66 -186 4 -87 9 -166 12 -174 6 -15 40 -20 68 -9 13
5 16 25 17 113 l1 106 46 -97 c50 -103 57 -109 120 -92 22 6 22 8 22 185 l0
179 -32 -1 c-18 -1 -40 -3 -48 -5z"/>
<path d="M425 446 c-42 -18 -82 -68 -96 -119 -15 -58 -6 -149 20 -191 40 -65
131 -72 196 -15 62 55 90 202 51 276 -29 58 -103 79 -171 49z m69 -62 c24 -24
23 -194 -2 -224 -40 -50 -77 17 -70 130 2 49 9 74 22 89 23 25 30 26 50 5z"/>
<path d="M1923 449 l-33 -10 1 -137 c0 -75 4 -159 7 -187 l7 -50 42 -3 42 -3
-5 68 -5 68 61 28 c107 50 144 145 81 208 -27 27 -35 29 -98 28 -37 0 -83 -5
-100 -10z m115 -51 c22 -22 14 -86 -13 -113 -37 -38 -49 -32 -41 21 3 26 6 60
6 75 0 31 25 40 48 17z"/>
<path d="M2295 448 c-38 -5 -74 -14 -79 -18 -8 -8 4 -195 21 -319 l6 -43 106
7 c58 4 109 10 112 13 4 4 5 21 2 39 l-5 32 -69 -6 -69 -6 0 47 0 46 56 0 55
0 -3 38 -3 37 -52 -3 -53 -3 0 35 0 36 65 0 65 0 0 40 0 40 -42 -1 c-24 -1
-74 -6 -113 -11z"/>
<path d="M1485 441 l-30 -6 3 -135 c3 -85 0 -146 -7 -164 -11 -28 -13 -29 -29
-12 -15 14 -17 36 -15 151 l1 135 -39 0 c-51 0 -60 -18 -66 -139 -9 -156 24
-216 119 -216 44 0 53 4 83 37 19 20 39 56 46 80 14 51 17 164 6 231 -9 50
-11 51 -72 38z"/>
<path d="M130 429 c-69 -28 -113 -105 -114 -199 -1 -104 42 -152 134 -152 66
1 110 27 129 75 16 43 16 42 -25 51 -29 6 -32 5 -37 -23 -4 -16 -16 -35 -28
-41 -18 -10 -25 -9 -42 9 -47 47 -26 236 26 229 15 -2 23 -12 27 -33 5 -27 8
-30 40 -27 52 6 58 12 48 50 -15 58 -92 87 -158 61z"/>
<path d="M1638 423 c-16 -4 -18 -17 -17 -91 0 -48 6 -132 12 -187 11 -94 13
-100 35 -99 12 0 58 1 102 2 l80 2 0 35 c0 43 -14 50 -75 37 -43 -9 -46 -8
-51 14 -3 13 -4 84 -2 159 l3 135 -35 -1 c-19 -1 -43 -3 -52 -6z"/>
</g>
</svg>
